<svg width="112" height="54" viewBox="0 0 112 54" fill="none" xmlns="http://www.w3.org/2000/svg">
<path fill-rule="evenodd" clip-rule="evenodd" d="M17.5489 53.5974C14.2815 53.5974 10.9088 53.0243 7.43061 51.878C4.99384 51.0255 2.71709 49.8433 0.600339 48.3316C3.13388 44.1081 6.00728 40.5803 8.24002 40.9788C10.6427 41.4076 12.3898 42.4883 13.9858 43.4757C15.6892 44.5294 17.2205 45.4767 19.1931 45.4113C22.2498 45.31 25.3489 41.1476 26.0706 39.2057C25.4416 38.8483 24.7173 38.4489 23.9764 38.0404C21.5674 36.7118 18.9842 35.2873 18.9384 34.8999C18.5308 31.4552 15.627 29.412 14.226 28.821L16.2638 25.6549C13.7265 26.3037 9.49743 27.3874 5.76085 28.3501C4.76007 27.5803 3.86742 26.7214 3.08291 25.7733C2.13432 24.5749 1.37018 23.2202 0.79049 21.7091C0.263497 20.1981 0 18.5307 0 16.707C0 14.5186 0.474294 12.4865 1.42288 10.6107C2.37147 8.68285 3.68895 7.01549 5.37533 5.60865C7.06171 4.14971 9.06429 3.00339 11.3831 2.16971C13.7545 1.33603 16.3368 0.919189 19.1299 0.919189C22.081 0.919189 25.0585 1.46629 28.0624 2.5605C31.0455 3.62841 33.7023 5.29188 36.0329 7.55092C34.8407 9.49181 32.8013 12.0476 30.2853 13.145C28.1151 14.0915 21.5949 9.63761 17.8875 7.10512L17.8873 7.10497C17.5201 6.85417 17.1806 6.62222 16.8755 6.41622V10.2982C16.051 11.1177 14.2457 12.9897 13.6207 13.9214C13.3604 14.3095 13.3604 15.431 13.6207 15.6035L11.2773 17.8033C11.8849 19.4424 13.7509 22.617 16.3548 22.2029C18.8329 21.8088 20.9573 21.3834 21.83 21.1946L22.3273 21.3875L33.4099 27.8964L35.4871 29.3158C36.9139 31.4564 37.6273 34.1314 37.6273 37.3407C37.6273 39.477 37.1794 41.5351 36.2835 43.5151C35.3876 45.4951 34.0701 47.2406 32.331 48.7517C30.6447 50.2106 28.563 51.383 26.0862 52.2688C23.6093 53.1546 20.7635 53.5974 17.5489 53.5974Z" fill="white"/>
<path d="M45.3564 19.2419C45.3564 17.4764 46.1274 16.1132 47.6695 15.1522C49.2115 14.1912 51.6698 13.5208 55.0444 13.1408C55.0444 12.7162 54.9886 12.3139 54.8768 11.934C54.7651 11.5317 54.5863 11.1853 54.3405 10.8948C54.117 10.5819 53.8153 10.3473 53.4353 10.1908C53.0778 10.0121 52.6196 9.92267 52.0609 9.92267C51.234 9.92267 50.4295 10.0791 49.6473 10.392C48.8875 10.7049 48.15 11.0848 47.4348 11.5317L46.0269 8.95052C46.9431 8.36946 47.96 7.86662 49.0774 7.442C50.2172 7.01738 51.4463 6.80507 52.7649 6.80507C54.8433 6.80507 56.3853 7.41965 57.391 8.64881C58.3967 9.85562 58.8995 11.61 58.8995 13.9118V23.6669H55.7484L55.4467 21.8567H55.3461C54.6086 22.4824 53.8153 23.0076 52.966 23.4322C52.1391 23.8569 51.234 24.0692 50.2507 24.0692C48.7981 24.0692 47.6136 23.6334 46.6973 22.7618C45.8034 21.8679 45.3564 20.6946 45.3564 19.2419ZM49.1109 18.9402C49.1109 19.6777 49.3232 20.2141 49.7479 20.5493C50.1948 20.8845 50.7647 21.0521 51.4575 21.0521C52.128 21.0521 52.7425 20.8957 53.3013 20.5828C53.86 20.27 54.441 19.823 55.0444 19.2419V15.5545C53.927 15.6885 52.9884 15.8673 52.2285 16.0908C51.4687 16.3143 50.8541 16.5713 50.3848 16.8618C49.9378 17.13 49.6138 17.4429 49.4126 17.8005C49.2115 18.158 49.1109 18.538 49.1109 18.9402Z" fill="white"/>
<path d="M61.2608 15.4539C61.2608 14.113 61.4507 12.9062 61.8306 11.8335C62.2329 10.7607 62.7581 9.85562 63.4062 9.11813C64.0543 8.38063 64.7918 7.81075 65.6187 7.40848C66.4679 7.00621 67.3395 6.80507 68.2334 6.80507C69.1721 6.80507 69.9654 6.97268 70.6135 7.30791C71.2616 7.62079 71.9097 8.05658 72.5578 8.61529L72.4238 5.96701V0H76.2788V23.6669H73.0942L72.826 21.8902H72.6919C72.0885 22.4936 71.3846 23.0076 70.58 23.4322C69.7755 23.8569 68.9262 24.0692 68.0323 24.0692C65.9539 24.0692 64.3001 23.3205 63.071 21.8232C61.8642 20.3035 61.2608 18.1804 61.2608 15.4539ZM65.2499 15.4204C65.2499 17.2082 65.5628 18.5715 66.1886 19.5101C66.8367 20.4264 67.7641 20.8845 68.9709 20.8845C70.2001 20.8845 71.351 20.27 72.4238 19.0408V11.3641C71.8427 10.8501 71.2728 10.4926 70.7141 10.2914C70.1777 10.0903 69.6302 9.98971 69.0715 9.98971C67.9988 9.98971 67.0937 10.459 66.3562 11.3977C65.6187 12.3363 65.2499 13.6772 65.2499 15.4204Z" fill="white"/>
<path d="M78.7747 15.4539C78.7747 14.0906 78.987 12.8727 79.4116 11.7999C79.8363 10.7272 80.4061 9.8221 81.1213 9.0846C81.8588 8.34711 82.6968 7.7884 83.6355 7.40848C84.5741 7.00621 85.5574 6.80507 86.5854 6.80507C87.6135 6.80507 88.5968 7.00621 89.5354 7.40848C90.4964 7.7884 91.3345 8.34711 92.0496 9.0846C92.7648 9.8221 93.3347 10.7272 93.7593 11.7999C94.2062 12.8727 94.4297 14.0906 94.4297 15.4539C94.4297 16.8171 94.2062 18.0351 93.7593 19.1078C93.3347 20.1806 92.7648 21.0857 92.0496 21.8232C91.3345 22.5607 90.4964 23.1194 89.5354 23.4993C88.5968 23.8792 87.6135 24.0692 86.5854 24.0692C85.5574 24.0692 84.5741 23.8792 83.6355 23.4993C82.6968 23.1194 81.8588 22.5607 81.1213 21.8232C80.4061 21.0857 79.8363 20.1806 79.4116 19.1078C78.987 18.0351 78.7747 16.8171 78.7747 15.4539ZM82.7304 15.4539C82.7304 17.1077 83.0656 18.4374 83.736 19.4431C84.4288 20.4264 85.3786 20.9181 86.5854 20.9181C87.7923 20.9181 88.7421 20.4264 89.4349 19.4431C90.1277 18.4374 90.4741 17.1077 90.4741 15.4539C90.4741 13.7778 90.1277 12.448 89.4349 11.4647C88.7421 10.459 87.7923 9.95619 86.5854 9.95619C85.3786 9.95619 84.4288 10.459 83.736 11.4647C83.0656 12.448 82.7304 13.7778 82.7304 15.4539Z" fill="white"/>
<path d="M100.76 25.0078V30.1703H96.9046V7.20734H100.089L100.357 8.95052H100.492C101.184 8.36946 101.955 7.86662 102.805 7.442C103.654 7.01738 104.537 6.80507 105.453 6.80507C106.481 6.80507 107.386 7.00621 108.168 7.40848C108.973 7.7884 109.654 8.34711 110.213 9.0846C110.772 9.8221 111.196 10.7049 111.487 11.7329C111.777 12.7609 111.923 13.9118 111.923 15.1857C111.923 16.5937 111.722 17.8563 111.319 18.9738C110.939 20.0688 110.425 20.9963 109.777 21.7561C109.129 22.4936 108.381 23.0635 107.531 23.4658C106.682 23.868 105.799 24.0692 104.883 24.0692C104.168 24.0692 103.453 23.9127 102.738 23.5999C102.022 23.287 101.33 22.84 100.659 22.259L100.76 25.0078ZM100.76 19.5101C101.363 20.0241 101.944 20.3817 102.503 20.5828C103.062 20.784 103.587 20.8845 104.078 20.8845C105.174 20.8845 106.09 20.4152 106.827 19.4766C107.565 18.5156 107.934 17.0965 107.934 15.2192C107.934 13.5654 107.654 12.2804 107.095 11.3641C106.537 10.4479 105.632 9.98971 104.38 9.98971C103.218 9.98971 102.011 10.6043 100.76 11.8335V19.5101Z" fill="white"/>
<path d="M46.6303 40.1887H44.2837V37.3058L46.8314 37.1382L47.3007 32.6462H50.5189V37.1382H54.7092V40.1887H50.5189V48.033C50.5189 49.955 51.2899 50.9159 52.8319 50.9159C53.1225 50.9159 53.413 50.8824 53.7035 50.8154C54.0164 50.7483 54.2958 50.6589 54.5416 50.5472L55.212 53.3966C54.7651 53.553 54.2511 53.6871 53.67 53.7989C53.1113 53.933 52.5079 54 51.8598 54C50.8988 54 50.0831 53.8547 49.4126 53.5642C48.7645 53.2737 48.2282 52.8714 47.8036 52.3574C47.4013 51.821 47.0996 51.1953 46.8984 50.4801C46.7197 49.7426 46.6303 48.9269 46.6303 48.033V40.1887Z" fill="white"/>
<path d="M58.7764 34.2552C58.0836 34.2552 57.5137 34.0541 57.0668 33.6518C56.6198 33.2496 56.3963 32.7244 56.3963 32.0763C56.3963 31.4282 56.6198 30.903 57.0668 30.5007C57.5137 30.0761 58.0836 29.8638 58.7764 29.8638C59.4692 29.8638 60.0391 30.0761 60.4861 30.5007C60.933 30.903 61.1565 31.4282 61.1565 32.0763C61.1565 32.7244 60.933 33.2496 60.4861 33.6518C60.0391 34.0541 59.4692 34.2552 58.7764 34.2552ZM56.8321 37.1382H60.6872V53.5977H56.8321V37.1382Z" fill="white"/>
<path d="M67.5164 45.016L62.6221 37.1382H66.7789L68.6226 40.2558C68.8685 40.7027 69.1143 41.1721 69.3601 41.6637C69.6283 42.133 69.8853 42.5912 70.1311 43.0381H70.2652C70.4664 42.5912 70.6787 42.133 70.9022 41.6637C71.1256 41.1721 71.3379 40.7027 71.5391 40.2558L73.1146 37.1382H77.1038L72.2431 45.4518L77.4726 53.5977H73.3158L71.3044 50.346C71.0362 49.8544 70.7569 49.3627 70.4664 48.8711C70.1982 48.3794 69.9188 47.8989 69.6283 47.4296H69.4942C69.2484 47.8989 69.0025 48.3794 68.7567 48.8711C68.5332 49.3404 68.2986 49.832 68.0527 50.346L66.3096 53.5977H62.2869L67.5164 45.016Z" fill="white"/>
</svg>
