<svg width="96" height="50" viewBox="0 0 96 50" fill="none" xmlns="http://www.w3.org/2000/svg">
<path fill-rule="evenodd" clip-rule="evenodd" d="M14.6579 47C11.9288 47 9.11165 46.5213 6.20648 45.5638C4.17119 44.8517 2.26953 43.8644 0.501524 42.6017C2.61768 39.074 5.01769 36.1274 6.88259 36.4603C8.88948 36.8184 10.3488 37.7212 11.6818 38.5458C13.1046 39.426 14.3836 40.2172 16.0313 40.1626C18.5844 40.0779 21.1729 36.6013 21.7758 34.9793C21.2504 34.6808 20.6454 34.3472 20.0266 34.006C18.0144 32.8963 15.8568 31.7064 15.8185 31.3828C15.4781 28.5056 13.0526 26.799 11.8824 26.3054L13.5845 23.6609C11.4653 24.2028 7.93294 25.1079 4.81195 25.9121C3.97598 25.269 3.23034 24.5515 2.57503 23.7596C1.78271 22.7587 1.14446 21.6271 0.660264 20.365C0.220088 19.1029 0 17.7102 0 16.1869C0 14.3591 0.396158 12.6617 1.18848 11.095C1.98079 9.48467 3.08123 8.09199 4.4898 6.91691C5.89836 5.69832 7.57103 4.74085 9.5078 4.04451C11.4886 3.34817 13.6455 3 15.9784 3C18.4434 3 20.9304 3.45697 23.4394 4.37092C25.9311 5.26292 28.1503 6.6524 30.0969 8.53934C29.1011 10.1605 27.3977 12.2951 25.2963 13.2117C23.4836 14.0023 18.0376 10.2822 14.9409 8.16687L14.9409 8.16685C14.6341 7.95733 14.3505 7.76355 14.0956 7.59146V10.8339C13.4069 11.5184 11.899 13.082 11.3771 13.8602C11.1596 14.1844 11.1596 15.1211 11.3771 15.2653L9.41966 17.1026C9.92713 18.4717 11.4858 21.1233 13.6607 20.7774C15.7305 20.4483 17.5048 20.093 18.2338 19.9352L18.6496 20.0965L27.9061 25.533L29.6408 26.7184C30.8327 28.5063 31.4286 30.7407 31.4286 33.4214C31.4286 35.2057 31.0544 36.9248 30.3061 38.5786C29.5578 40.2324 28.4574 41.6904 27.0048 42.9525C25.5962 44.1711 23.8575 45.1503 21.7887 45.8902C19.7199 46.6301 17.3429 47 14.6579 47Z" fill="#147363"/>
<path d="M37.8842 18.304C37.8842 16.8293 38.5282 15.6907 39.8162 14.888C41.1042 14.0853 43.1576 13.5253 45.9762 13.208C45.9762 12.8533 45.9296 12.5173 45.8362 12.2C45.7429 11.864 45.5936 11.5747 45.3882 11.332C45.2016 11.0707 44.9496 10.8747 44.6322 10.744C44.3336 10.5947 43.9509 10.52 43.4842 10.52C42.7936 10.52 42.1216 10.6507 41.4682 10.912C40.8336 11.1733 40.2176 11.4907 39.6202 11.864L38.4442 9.708C39.2096 9.22267 40.0589 8.80267 40.9922 8.448C41.9442 8.09333 42.9709 7.916 44.0722 7.916C45.8082 7.916 47.0962 8.42933 47.9362 9.456C48.7762 10.464 49.1962 11.9293 49.1962 13.852V22H46.5642L46.3122 20.488H46.2282C45.6122 21.0107 44.9496 21.4493 44.2402 21.804C43.5496 22.1587 42.7936 22.336 41.9722 22.336C40.7589 22.336 39.7696 21.972 39.0042 21.244C38.2576 20.4973 37.8842 19.5173 37.8842 18.304ZM41.0202 18.052C41.0202 18.668 41.1976 19.116 41.5522 19.396C41.9256 19.676 42.4016 19.816 42.9802 19.816C43.5402 19.816 44.0536 19.6853 44.5202 19.424C44.9869 19.1627 45.4722 18.7893 45.9762 18.304V15.224C45.0429 15.336 44.2589 15.4853 43.6242 15.672C42.9896 15.8587 42.4762 16.0733 42.0842 16.316C41.7109 16.54 41.4402 16.8013 41.2722 17.1C41.1042 17.3987 41.0202 17.716 41.0202 18.052ZM51.1685 15.14C51.1685 14.02 51.3271 13.012 51.6445 12.116C51.9805 11.22 52.4191 10.464 52.9605 9.848C53.5018 9.232 54.1178 8.756 54.8085 8.42C55.5178 8.084 56.2458 7.916 56.9925 7.916C57.7765 7.916 58.4391 8.056 58.9805 8.336C59.5218 8.59733 60.0631 8.96133 60.6045 9.428L60.4925 7.216V2.232H63.7125V22H61.0525L60.8285 20.516H60.7165C60.2125 21.02 59.6245 21.4493 58.9525 21.804C58.2805 22.1587 57.5711 22.336 56.8245 22.336C55.0885 22.336 53.7071 21.7107 52.6805 20.46C51.6725 19.1907 51.1685 17.4173 51.1685 15.14ZM54.5005 15.112C54.5005 16.6053 54.7618 17.744 55.2845 18.528C55.8258 19.2933 56.6005 19.676 57.6085 19.676C58.6351 19.676 59.5965 19.1627 60.4925 18.136V11.724C60.0071 11.2947 59.5311 10.996 59.0645 10.828C58.6165 10.66 58.1591 10.576 57.6925 10.576C56.7965 10.576 56.0405 10.968 55.4245 11.752C54.8085 12.536 54.5005 13.656 54.5005 15.112ZM65.7972 15.14C65.7972 14.0013 65.9745 12.984 66.3292 12.088C66.6838 11.192 67.1598 10.436 67.7572 9.82C68.3732 9.204 69.0732 8.73733 69.8572 8.42C70.6412 8.084 71.4625 7.916 72.3212 7.916C73.1798 7.916 74.0012 8.084 74.7852 8.42C75.5878 8.73733 76.2878 9.204 76.8852 9.82C77.4825 10.436 77.9585 11.192 78.3132 12.088C78.6865 12.984 78.8732 14.0013 78.8732 15.14C78.8732 16.2787 78.6865 17.296 78.3132 18.192C77.9585 19.088 77.4825 19.844 76.8852 20.46C76.2878 21.076 75.5878 21.5427 74.7852 21.86C74.0012 22.1773 73.1798 22.336 72.3212 22.336C71.4625 22.336 70.6412 22.1773 69.8572 21.86C69.0732 21.5427 68.3732 21.076 67.7572 20.46C67.1598 19.844 66.6838 19.088 66.3292 18.192C65.9745 17.296 65.7972 16.2787 65.7972 15.14ZM69.1012 15.14C69.1012 16.5213 69.3812 17.632 69.9412 18.472C70.5198 19.2933 71.3132 19.704 72.3212 19.704C73.3292 19.704 74.1225 19.2933 74.7012 18.472C75.2798 17.632 75.5692 16.5213 75.5692 15.14C75.5692 13.74 75.2798 12.6293 74.7012 11.808C74.1225 10.968 73.3292 10.548 72.3212 10.548C71.3132 10.548 70.5198 10.968 69.9412 11.808C69.3812 12.6293 69.1012 13.74 69.1012 15.14ZM84.1603 23.12V27.432H80.9403V8.252H83.6003L83.8243 9.708H83.9363C84.515 9.22267 85.159 8.80267 85.8683 8.448C86.5777 8.09333 87.315 7.916 88.0803 7.916C88.939 7.916 89.695 8.084 90.3483 8.42C91.0203 8.73733 91.5897 9.204 92.0563 9.82C92.523 10.436 92.8777 11.1733 93.1203 12.032C93.363 12.8907 93.4843 13.852 93.4843 14.916C93.4843 16.092 93.3163 17.1467 92.9803 18.08C92.663 18.9947 92.2337 19.7693 91.6923 20.404C91.151 21.02 90.5257 21.496 89.8163 21.832C89.107 22.168 88.3697 22.336 87.6043 22.336C87.007 22.336 86.4097 22.2053 85.8123 21.944C85.215 21.6827 84.6363 21.3093 84.0763 20.824L84.1603 23.12ZM84.1603 18.528C84.6643 18.9573 85.1497 19.256 85.6163 19.424C86.083 19.592 86.5217 19.676 86.9323 19.676C87.847 19.676 88.6123 19.284 89.2283 18.5C89.8443 17.6973 90.1523 16.512 90.1523 14.944C90.1523 13.5627 89.919 12.4893 89.4523 11.724C88.9857 10.9587 88.2297 10.576 87.1843 10.576C86.2137 10.576 85.2057 11.0893 84.1603 12.116V18.528ZM38.9482 35.8H36.9882V33.392L39.1162 33.252L39.5082 29.5H42.1962V33.252H45.6962V35.8H42.1962V42.352C42.1962 43.9573 42.8402 44.76 44.1282 44.76C44.3709 44.76 44.6136 44.732 44.8562 44.676C45.1176 44.62 45.3509 44.5453 45.5562 44.452L46.1162 46.832C45.7429 46.9627 45.3136 47.0747 44.8282 47.168C44.3616 47.28 43.8576 47.336 43.3162 47.336C42.5136 47.336 41.8322 47.2147 41.2722 46.972C40.7309 46.7293 40.2829 46.3933 39.9282 45.964C39.5922 45.516 39.3402 44.9933 39.1722 44.396C39.0229 43.78 38.9482 43.0987 38.9482 42.352V35.8ZM49.0934 30.844C48.5147 30.844 48.0387 30.676 47.6654 30.34C47.2921 30.004 47.1054 29.5653 47.1054 29.024C47.1054 28.4827 47.2921 28.044 47.6654 27.708C48.0387 27.3533 48.5147 27.176 49.0934 27.176C49.6721 27.176 50.1481 27.3533 50.5214 27.708C50.8947 28.044 51.0814 28.4827 51.0814 29.024C51.0814 29.5653 50.8947 30.004 50.5214 30.34C50.1481 30.676 49.6721 30.844 49.0934 30.844ZM47.4694 33.252H50.6894V47H47.4694V33.252ZM56.3935 39.832L52.3055 33.252H55.7775L57.3175 35.856C57.5229 36.2293 57.7282 36.6213 57.9335 37.032C58.1575 37.424 58.3722 37.8067 58.5775 38.18H58.6895C58.8575 37.8067 59.0349 37.424 59.2215 37.032C59.4082 36.6213 59.5855 36.2293 59.7535 35.856L61.0695 33.252H64.4015L60.3415 40.196L64.7095 47H61.2375L59.5575 44.284C59.3335 43.8733 59.1002 43.4627 58.8575 43.052C58.6335 42.6413 58.4002 42.24 58.1575 41.848H58.0455C57.8402 42.24 57.6349 42.6413 57.4295 43.052C57.2429 43.444 57.0469 43.8547 56.8415 44.284L55.3855 47H52.0255L56.3935 39.832Z" fill="#FF957B"/>
</svg>
