<svg width="42" height="36" viewBox="0 0 42 36" fill="none" xmlns="http://www.w3.org/2000/svg">
<path d="M27.6182 31.3427C26.8545 30.3357 26.2182 28.993 25.7091 27.3147C25.2 25.6364 24.9455 23.4545 24.9455 20.7692C24.9455 18 25.5394 15.1049 26.7273 12.0839C27.9152 9.06294 29.3152 6.75524 30.9273 5.16084C34.2364 1.72028 36.8242 0 38.6909 0C39.1152 0 39.497 0.209792 39.8364 0.629377C40.1758 0.965037 40.3455 1.34266 40.3455 1.76224C40.3455 2.0979 39.9636 2.6014 39.2 3.27273C38.4364 3.86014 37.6303 4.48951 36.7818 5.16084C35.9333 5.83217 35.1273 6.96504 34.3636 8.55944C33.6 10.1538 33.2182 12.0839 33.2182 14.3497C33.2182 16.5315 33.6848 18.4196 34.6182 20.014C35.5515 21.5245 36.5273 22.5734 37.5455 23.1608C40.5152 24.7552 42 26.3496 42 27.9441C42 28.4476 41.3636 29.3287 40.0909 30.5874C38.903 31.7622 37.9697 32.7692 37.2909 33.6084C36.0182 35.2028 34.7455 36 33.4727 36C32.7091 36 31.7333 35.4965 30.5455 34.4895C29.3576 33.3986 28.3818 32.3497 27.6182 31.3427ZM5.85454 34.7413C4.66667 33.9021 3.39394 32.3497 2.03636 30.0839C0.678788 27.7343 0 24.9231 0 21.6504C0 18.2937 0.593939 15.1049 1.78182 12.0839C2.9697 9.06294 4.3697 6.75524 5.98182 5.16084C9.46061 1.72028 12.0909 0 13.8727 0C14.297 0 14.6788 0.209792 15.0182 0.629377C15.3576 0.965037 15.5273 1.34266 15.5273 1.76224C15.5273 2.0979 15.1455 2.6014 14.3818 3.27273C13.703 3.86014 12.897 4.48951 11.9636 5.16084C11.0303 5.83217 10.1818 6.96504 9.41818 8.55944C8.73939 10.1538 8.4 12.0839 8.4 14.3497C8.4 16.5315 8.86667 18.4196 9.8 20.014C10.7333 21.5245 11.7515 22.5734 12.8545 23.1608C15.7394 24.7552 17.1818 26.3496 17.1818 27.9441C17.1818 28.4476 16.5455 29.3287 15.2727 30.5874C14.0848 31.7622 13.1091 32.7692 12.3455 33.6084C11.1576 35.2028 10.097 36 9.16364 36C8.2303 36 7.12727 35.5804 5.85454 34.7413Z" fill="#147363"/>
</svg>
