<?xml version="1.0" encoding="UTF-8"?>
<svg xmlns="http://www.w3.org/2000/svg" width="23" height="22" viewBox="0 0 23 22" fill="">
  <path d="M22.9639 4.25105C22.5628 4.43855 22.1403 4.59721 21.6963 4.72701C21.2666 4.8424 20.8226 4.92894 20.3643 4.98663C20.8369 4.69817 21.2451 4.33759 21.5889 3.9049C21.9326 3.47221 22.1904 2.98903 22.3623 2.45538C21.9183 2.71499 21.4528 2.93855 20.9658 3.12605C20.4932 3.31355 19.999 3.45778 19.4834 3.55874C19.0824 3.12605 18.5954 2.7799 18.0225 2.52028C17.4495 2.26067 16.8408 2.13086 16.1963 2.13086C15.5661 2.13086 14.9788 2.25346 14.4346 2.49865C13.8903 2.72942 13.4105 3.05394 12.9951 3.47221C12.5941 3.87605 12.2718 4.35201 12.0283 4.90009C11.7992 5.44817 11.6846 6.03951 11.6846 6.67413C11.6846 6.84721 11.6917 7.02028 11.7061 7.19336C11.7347 7.36644 11.7633 7.53951 11.792 7.71259C10.861 7.66932 9.9515 7.52509 9.06348 7.2799C8.18978 7.03471 7.35905 6.71019 6.57129 6.30634C5.78353 5.88807 5.0459 5.39769 4.3584 4.83519C3.6709 4.27269 3.04785 3.64528 2.48926 2.95297C2.30306 3.29913 2.15267 3.66692 2.03809 4.05634C1.93783 4.43134 1.8877 4.82797 1.8877 5.24624C1.8877 6.03951 2.06673 6.76788 2.4248 7.43134C2.7972 8.0948 3.28418 8.62846 3.88574 9.0323C3.51335 9.01788 3.15527 8.96019 2.81152 8.85922C2.46777 8.75826 2.14551 8.62846 1.84473 8.4698C1.84473 8.4698 1.84473 8.47701 1.84473 8.49144C1.84473 8.50586 1.84473 8.51307 1.84473 8.51307C1.84473 9.62365 2.18848 10.5972 2.87598 11.4337C3.5778 12.2559 4.44434 12.7679 5.47559 12.9698C5.27507 13.0275 5.07454 13.0708 4.87402 13.0996C4.68783 13.1285 4.4873 13.1429 4.27246 13.1429C4.12923 13.1429 3.986 13.1357 3.84277 13.1212C3.69954 13.1068 3.56348 13.0852 3.43457 13.0563C3.72103 13.9506 4.24382 14.6934 5.00293 15.2847C5.77637 15.8761 6.65723 16.1861 7.64551 16.215C6.87207 16.8208 6.00553 17.2967 5.0459 17.6429C4.10059 17.989 3.09798 18.1621 2.03809 18.1621C1.85189 18.1621 1.66569 18.1549 1.47949 18.1405C1.30762 18.1261 1.13574 18.1116 0.963867 18.0972C1.46517 18.4145 1.98796 18.703 2.53223 18.9626C3.0765 19.2078 3.63509 19.4169 4.20801 19.59C4.79525 19.7631 5.39681 19.9001 6.0127 20.0011C6.62858 20.0876 7.25163 20.1309 7.88184 20.1309C9.95866 20.1309 11.792 19.7414 13.3818 18.9626C14.986 18.1693 16.3324 17.1525 17.4209 15.9121C18.5094 14.6717 19.333 13.2871 19.8916 11.7583C20.4502 10.215 20.7295 8.69336 20.7295 7.19336C20.7295 7.10682 20.7223 7.01307 20.708 6.91211C20.708 6.81115 20.708 6.71019 20.708 6.60922C21.152 6.29192 21.5602 5.93855 21.9326 5.54913C22.3193 5.14528 22.6631 4.71259 22.9639 4.25105Z"></path>
</svg>
