<?xml version="1.0" encoding="UTF-8"?>
<svg xmlns="http://www.w3.org/2000/svg" width="22" height="22" viewBox="0 0 22 22" fill="">
  <path d="M8.20264 22.1309V12.5975H5.13037V8.19752H8.20264V5.12669C8.20264 4.28641 8.31722 3.55308 8.54639 2.92669C8.78988 2.3003 9.1193 1.78086 9.53467 1.36836C9.96436 0.955859 10.4728 0.650304 11.0601 0.451693C11.6473 0.237804 12.2918 0.130859 12.9937 0.130859C13.6525 0.130859 14.2469 0.153776 14.7769 0.199609C15.3068 0.230165 15.6506 0.26072 15.8081 0.291276V3.77461H13.8745C13.1154 3.77461 12.6141 3.9503 12.3706 4.30169C12.1271 4.65308 12.0054 5.11141 12.0054 5.67669V8.19752H16.1304L14.7554 12.5975H12.0054V22.1309H8.20264Z"></path>
</svg>
