<?xml version="1.0" encoding="UTF-8"?>
<svg xmlns="http://www.w3.org/2000/svg" width="22" height="23" viewBox="0 0 22 23" fill="">
  <path d="M21.7852 6.2356C21.7852 6.2356 21.7207 5.95424 21.5918 5.39151C21.4629 4.82878 21.2337 4.38148 20.9043 4.04961C20.4889 3.60231 20.0664 3.34259 19.6367 3.27044C19.2214 3.18387 18.9063 3.12615 18.6914 3.09729C17.9323 3.03958 17.1016 2.99629 16.1992 2.96743C15.2969 2.93858 14.459 2.91693 13.6855 2.9025C12.9264 2.88807 12.2891 2.88086 11.7734 2.88086C11.2578 2.88086 11 2.88086 11 2.88086C11 2.88086 10.7422 2.88086 10.2266 2.88086C9.71094 2.88086 9.06641 2.88807 8.29297 2.9025C7.53385 2.91693 6.70313 2.93858 5.80078 2.96743C4.89844 2.99629 4.06771 3.03958 3.30859 3.09729C3.09375 3.12615 2.77148 3.18387 2.3418 3.27044C1.92643 3.34259 1.51107 3.60231 1.0957 4.04961C0.766276 4.38148 0.537109 4.82878 0.408203 5.39151C0.279297 5.95424 0.214844 6.2356 0.214844 6.2356C0.214844 6.2356 0.179036 6.61076 0.107422 7.36107C0.0358073 8.11138 0 8.93383 0 9.82843V11.5166C0 12.4112 0.0358073 13.2337 0.107422 13.984C0.179036 14.7199 0.214844 15.0878 0.214844 15.0878C0.214844 15.0878 0.279297 15.3764 0.408203 15.9535C0.537109 16.5163 0.766276 16.9636 1.0957 17.2954C1.51107 17.7427 1.95508 18.0025 2.42773 18.0746C2.91471 18.1468 3.27995 18.2045 3.52344 18.2478C3.96745 18.291 4.60482 18.3271 5.43555 18.356C6.26628 18.3848 7.08984 18.4065 7.90625 18.4209C8.73698 18.4353 9.46029 18.4498 10.0762 18.4642C10.6921 18.4642 11 18.4642 11 18.4642C11 18.4642 11.2578 18.4642 11.7734 18.4642C12.2891 18.4642 12.9264 18.457 13.6855 18.4425C14.459 18.4281 15.2969 18.4065 16.1992 18.3776C17.1016 18.3343 17.9323 18.2838 18.6914 18.2261C18.9063 18.2117 19.2214 18.1684 19.6367 18.0963C20.0664 18.0097 20.4889 17.7427 20.9043 17.2954C21.2337 16.9636 21.4629 16.5163 21.5918 15.9535C21.7207 15.3764 21.7852 15.0878 21.7852 15.0878C21.7852 15.0878 21.821 14.7199 21.8926 13.984C21.9642 13.2337 22 12.4112 22 11.5166V9.82843C22 8.93383 21.9642 8.11138 21.8926 7.36107C21.821 6.61076 21.7852 6.2356 21.7852 6.2356ZM8.72266 13.5511V7.31778L14.6738 10.4344L8.72266 13.5511Z"></path>
</svg>
