<?xml version="1.0" encoding="UTF-8"?>
<svg xmlns="http://www.w3.org/2000/svg" width="22" height="22" viewBox="0 0 22 22" fill="">
  <path d="M11.132 2.00028C12.625 2.00028 13.5961 2.00753 14.0455 2.02202C14.5093 2.02202 15.0383 2.03652 15.6326 2.06551C16.2704 2.0945 16.8719 2.19596 17.4372 2.3699C18.017 2.52934 18.5316 2.83373 18.9809 3.28307C19.4303 3.73241 19.7347 4.24697 19.8941 4.82677C20.068 5.39206 20.1695 5.9936 20.1985 6.63137C20.2275 7.22565 20.242 7.75471 20.242 8.21855C20.2565 8.66789 20.2637 9.63904 20.2637 11.132C20.2637 12.625 20.2565 13.6034 20.242 14.0672C20.242 14.5165 20.2275 15.0383 20.1985 15.6326C20.1695 16.2704 20.068 16.8792 19.8941 17.459C19.7347 18.0243 19.4303 18.5316 18.9809 18.9809C18.5316 19.4303 18.017 19.7419 17.4372 19.9158C16.8719 20.0753 16.2704 20.1695 15.6326 20.1985C15.0383 20.2275 14.5093 20.2492 14.0455 20.2637C13.5961 20.2637 12.625 20.2637 11.132 20.2637C9.63904 20.2637 8.66064 20.2637 8.19681 20.2637C7.74747 20.2492 7.22565 20.2275 6.63137 20.1985C5.9936 20.1695 5.38482 20.0753 4.80502 19.9158C4.23973 19.7419 3.73241 19.4303 3.28307 18.9809C2.83373 18.5316 2.52209 18.0243 2.34816 17.459C2.18871 16.8792 2.0945 16.2704 2.06551 15.6326C2.03652 15.0383 2.01478 14.5165 2.00028 14.0672C2.00028 13.6034 2.00028 12.625 2.00028 11.132C2.00028 9.63904 2.00028 8.66789 2.00028 8.21855C2.01478 7.75471 2.03652 7.22565 2.06551 6.63137C2.0945 5.9936 2.18871 5.39206 2.34816 4.82677C2.52209 4.24697 2.83373 3.73241 3.28307 3.28307C3.73241 2.83373 4.23973 2.52934 4.80502 2.3699C5.38482 2.19596 5.9936 2.0945 6.63137 2.06551C7.22565 2.03652 7.74747 2.02202 8.19681 2.02202C8.66064 2.00753 9.63904 2.00028 11.132 2.00028ZM11.132 0C9.62454 0 8.63165 0.0072474 8.15332 0.0217422C7.67499 0.0217422 7.13869 0.036237 6.5444 0.0652266C5.63123 0.108711 4.78328 0.260906 4.00056 0.521812C3.21784 0.782719 2.5076 1.23206 1.86983 1.86983C1.23206 2.5076 0.782719 3.21784 0.521813 4.00056C0.260906 4.78328 0.108711 5.63123 0.0652266 6.5444C0.036237 7.13868 0.0144948 7.67499 0 8.15332C0 8.63165 0 9.62454 0 11.132C0 12.6395 0 13.6324 0 14.1107C0.0144948 14.589 0.036237 15.1253 0.0652266 15.7196C0.108711 16.6328 0.260906 17.4807 0.521813 18.2634C0.782719 19.0462 1.23206 19.7564 1.86983 20.3942C2.5076 21.0319 3.21784 21.4813 4.00056 21.7422C4.78328 22.0031 5.63123 22.1553 6.5444 22.1988C7.13869 22.2278 7.67499 22.2423 8.15332 22.2423C8.63165 22.2568 9.62454 22.264 11.132 22.264C12.6395 22.264 13.6324 22.2568 14.1107 22.2423C14.589 22.2423 15.1253 22.2278 15.7196 22.1988C16.6328 22.1553 17.4807 22.0031 18.2634 21.7422C19.0462 21.4813 19.7564 21.0319 20.3942 20.3942C21.0319 19.7564 21.4813 19.0462 21.7422 18.2634C22.0031 17.4807 22.1553 16.6328 22.1988 15.7196C22.2278 15.1253 22.2423 14.589 22.2423 14.1107C22.2568 13.6324 22.264 12.6395 22.264 11.132C22.264 9.62454 22.2568 8.63165 22.2423 8.15332C22.2423 7.67499 22.2278 7.13868 22.1988 6.5444C22.1553 5.63123 22.0031 4.78328 21.7422 4.00056C21.4813 3.21784 21.0319 2.5076 20.3942 1.86983C19.7564 1.23206 19.0462 0.782719 18.2634 0.521812C17.4807 0.260906 16.6328 0.108711 15.7196 0.0652266C15.1253 0.036237 14.589 0.0217422 14.1107 0.0217422C13.6324 0.0072474 12.6395 0 11.132 0ZM11.132 5.4138C10.3493 5.4138 9.61005 5.566 8.9143 5.87039C8.21855 6.16029 7.60977 6.56614 7.08795 7.08795C6.56614 7.60977 6.15304 8.21855 5.84865 8.9143C5.55875 9.61005 5.41381 10.3493 5.41381 11.132C5.41381 11.9147 5.55875 12.654 5.84865 13.3497C6.15304 14.0455 6.56614 14.6542 7.08795 15.176C7.60977 15.6979 8.21855 16.111 8.9143 16.4154C9.61005 16.7052 10.3493 16.8502 11.132 16.8502C11.9147 16.8502 12.654 16.7052 13.3497 16.4154C14.0455 16.111 14.6542 15.6979 15.176 15.176C15.6979 14.6542 16.1037 14.0455 16.3936 13.3497C16.698 12.654 16.8502 11.9147 16.8502 11.132C16.8502 10.3493 16.698 9.61005 16.3936 8.9143C16.1037 8.21855 15.6979 7.60977 15.176 7.08795C14.6542 6.56614 14.0455 6.16029 13.3497 5.87039C12.654 5.566 11.9147 5.4138 11.132 5.4138ZM11.132 14.8499C10.1029 14.8499 9.22594 14.4875 8.5012 13.7628C7.77646 13.0381 7.41409 12.1611 7.41409 11.132C7.41409 10.1029 7.77646 9.22593 8.5012 8.50119C9.22594 7.77646 10.1029 7.41409 11.132 7.41409C12.1611 7.41409 13.0381 7.77646 13.7628 8.50119C14.4875 9.22593 14.8499 10.1029 14.8499 11.132C14.8499 12.1611 14.4875 13.0381 13.7628 13.7628C13.0381 14.4875 12.1611 14.8499 11.132 14.8499ZM18.4156 5.19638C18.4156 5.55875 18.2852 5.87039 18.0243 6.1313C17.7634 6.3922 17.4445 6.52266 17.0676 6.52266C16.7052 6.52266 16.3936 6.3922 16.1327 6.1313C15.8718 5.87039 15.7413 5.55875 15.7413 5.19638C15.7413 4.81952 15.8718 4.50063 16.1327 4.23973C16.3936 3.97882 16.7052 3.84837 17.0676 3.84837C17.4445 3.84837 17.7634 3.97882 18.0243 4.23973C18.2852 4.50063 18.4156 4.81952 18.4156 5.19638Z"></path>
</svg>
